# Blender v2.83.0 OBJ File: 'arena.blend'
# www.blender.org
mtllib arena-walls-collider.mtl
o arena-walls-collider_Cube.001
v 0.744655 10.000000 -0.749822
v 0.719851 10.000000 0.749822
v -0.754990 10.000000 -0.749822
v -0.754990 10.000000 0.749822
v 0.744655 -0.000002 0.749822
v -0.754990 -0.000002 0.749822
v 0.744655 -0.000002 -0.749822
v -0.754990 -0.000002 -0.749822
vt 0.621875 0.003125
vt 0.621875 0.246875
vt 0.621875 0.246875
vt 0.621875 0.003125
vt 0.378125 0.246875
vt 0.378125 0.246875
vt 0.378125 0.003125
vt 0.378125 0.003125
vn 1.0000 0.0000 0.0000
vn 0.0000 0.0000 -1.0000
vn 0.0000 0.0000 1.0000
vn -1.0000 -0.0012 -0.0083
usemtl Material.001
s off
f 3/1/1 4/2/1 6/3/1 8/4/1
f 4/2/2 2/5/2 5/6/2 6/3/2
f 1/7/3 3/1/3 8/4/3 7/8/3
f 2/5/4 1/7/4 7/8/4 5/6/4
