# Blender v2.80 (sub 74) OBJ File: 'arena-walls-collider.blend'
# www.blender.org
mtllib arena-walls-collider.mtl
o Cube
v 1.999526 10.350000 -1.999526
v 1.933382 10.350000 1.999526
v -1.999526 10.350000 -1.999526
v -1.999526 10.350000 1.999526
v 1.999526 -0.350000 1.999526
v -1.999526 -0.350000 1.999526
v 1.999526 -0.350000 -1.999526
v -1.999526 -0.350000 -1.999526
vt 0.621875 0.003125
vt 0.621875 0.246875
vt 0.621875 0.246875
vt 0.621875 0.003125
vt 0.378125 0.246875
vt 0.378125 0.246875
vt 0.378125 0.003125
vt 0.378125 0.003125
vn 1.0000 0.0000 0.0000
vn 0.0000 0.0000 -1.0000
vn 0.0000 0.0000 1.0000
vn -1.0000 -0.0031 -0.0083
usemtl Material
s off
f 3/1/1 4/2/1 6/3/1 8/4/1
f 4/2/2 2/5/2 5/6/2 6/3/2
f 1/7/3 3/1/3 8/4/3 7/8/3
f 2/5/4 1/7/4 7/8/4 5/6/4
