# Blender v2.80 (sub 74) OBJ File: 'traffic-cone.blend'
# www.blender.org
mtllib traffic-cone.mtl
o Cube
v 0.131250 -0.022462 -0.110250
v 0.110250 -0.022462 -0.131250
v 0.110250 -0.057462 -0.131250
v 0.131250 -0.057462 -0.110250
v 0.110250 -0.022462 0.131250
v 0.131250 -0.022462 0.110250
v 0.131250 -0.057462 0.110250
v 0.110250 -0.057462 0.131250
v -0.110250 -0.022462 -0.131250
v -0.131250 -0.022462 -0.110250
v -0.131250 -0.057462 -0.110250
v -0.110250 -0.057462 -0.131250
v -0.131250 -0.022462 0.110250
v -0.110250 -0.022462 0.131250
v -0.110250 -0.057462 0.131250
v -0.131250 -0.057462 0.110250
v -0.000000 -0.022462 -0.110250
v -0.104854 -0.022462 -0.034069
v -0.064803 -0.022462 0.089194
v 0.064803 -0.022462 0.089194
v 0.104854 -0.022462 -0.034069
v 0.000000 0.211529 -0.015106
v -0.014366 0.211529 -0.004668
v -0.008879 0.211529 0.012221
v 0.008879 0.211529 0.012221
v 0.014366 0.211529 -0.004668
v 0.089162 0.017867 -0.028970
v 0.069756 0.067948 -0.022665
v 0.050817 0.116897 -0.016512
v 0.031879 0.165845 -0.010358
v 0.000000 0.165845 -0.033519
v 0.000000 0.116897 -0.053432
v -0.000000 0.067948 -0.073346
v -0.000000 0.017867 -0.093750
v -0.055105 0.017867 0.075846
v -0.043112 0.067948 0.059338
v -0.031407 0.116897 0.043228
v -0.019702 0.165845 0.027118
v 0.019702 0.165845 0.027118
v 0.031407 0.116897 0.043228
v 0.043112 0.067948 0.059338
v 0.055105 0.017867 0.075846
v -0.031879 0.165845 -0.010358
v -0.050817 0.116897 -0.016512
v -0.069756 0.067948 -0.022665
v -0.089162 0.017867 -0.028970
vt 0.488281 0.516211
vt 0.491458 0.514895
vt 0.492773 0.511719
vt 0.491458 0.508542
vt 0.488281 0.507227
vt 0.485105 0.508542
vt 0.483790 0.511719
vt 0.485105 0.514895
vt 0.163477 0.464258
vt 0.172461 0.464258
vt 0.172461 0.473242
vt 0.163477 0.473242
vt 0.163477 0.464258
vt 0.172461 0.464258
vt 0.172461 0.473242
vt 0.163477 0.473242
vt 0.167969 0.473242
vt 0.171145 0.471926
vt 0.172461 0.468750
vt 0.171145 0.465574
vt 0.167969 0.464258
vt 0.164793 0.465574
vt 0.163477 0.468750
vt 0.164793 0.471926
vt 0.163477 0.464258
vt 0.172461 0.464258
vt 0.172461 0.473242
vt 0.163477 0.473242
vt 0.163477 0.464258
vt 0.172461 0.464258
vt 0.172461 0.473242
vt 0.163477 0.473242
vt 0.163477 0.464258
vt 0.172461 0.464258
vt 0.172461 0.473242
vt 0.163477 0.473242
vt 0.163477 0.464258
vt 0.172461 0.464258
vt 0.172461 0.473242
vt 0.163477 0.473242
vt 0.163477 0.464258
vt 0.172461 0.464258
vt 0.172461 0.473242
vt 0.163477 0.473242
vt 0.163477 0.464258
vt 0.172461 0.464258
vt 0.172461 0.473242
vt 0.163477 0.473242
vt 0.162184 0.461823
vt 0.163477 0.471025
vt 0.172461 0.471025
vt 0.173754 0.461823
vt 0.162184 0.461823
vt 0.163477 0.471025
vt 0.172461 0.471025
vt 0.173754 0.461823
vt 0.162210 0.462186
vt 0.163477 0.471025
vt 0.172376 0.469826
vt 0.173759 0.461891
vt 0.162184 0.461823
vt 0.163477 0.471025
vt 0.172461 0.471025
vt 0.173754 0.461823
vt 0.162179 0.461891
vt 0.163562 0.469826
vt 0.172461 0.471025
vt 0.173728 0.462186
vt 0.167969 0.475289
vt 0.164214 0.463497
vt 0.171724 0.463497
vt 0.163477 0.464258
vt 0.163477 0.471025
vt 0.172461 0.471025
vt 0.172461 0.464258
vt 0.825971 0.496989
vt 0.826237 0.506181
vt 0.835221 0.506181
vt 0.835487 0.496989
vt 0.163109 0.462041
vt 0.163477 0.471025
vt 0.172461 0.471025
vt 0.172829 0.462041
vt 0.825606 0.497197
vt 0.826237 0.506181
vt 0.835221 0.506181
vt 0.835852 0.497198
vt 0.163477 0.464258
vt 0.163477 0.471025
vt 0.172461 0.471025
vt 0.172461 0.464258
vt 0.825971 0.496989
vt 0.826237 0.506181
vt 0.835221 0.506181
vt 0.835488 0.496988
vt 0.163109 0.462041
vt 0.163477 0.471025
vt 0.172461 0.471025
vt 0.172829 0.462041
vt 0.825606 0.497198
vt 0.826237 0.506181
vt 0.835221 0.506181
vt 0.835852 0.497198
vt 0.163477 0.464258
vt 0.163477 0.471025
vt 0.172461 0.471025
vt 0.172461 0.464258
vt 0.825971 0.496988
vt 0.826237 0.506181
vt 0.835221 0.506181
vt 0.835487 0.496989
vt 0.163109 0.462041
vt 0.163477 0.471025
vt 0.172461 0.471025
vt 0.172829 0.462041
vt 0.825606 0.497198
vt 0.826237 0.506181
vt 0.835221 0.506181
vt 0.835852 0.497198
vt 0.163477 0.464258
vt 0.163477 0.471025
vt 0.172461 0.471025
vt 0.172461 0.464258
vt 0.825971 0.496988
vt 0.826237 0.506181
vt 0.835221 0.506181
vt 0.835487 0.496988
vt 0.163109 0.462041
vt 0.163477 0.471025
vt 0.172461 0.471025
vt 0.172829 0.462041
vt 0.825606 0.497197
vt 0.826237 0.506181
vt 0.835221 0.506181
vt 0.835852 0.497197
vt 0.163477 0.464258
vt 0.163477 0.471025
vt 0.172461 0.471025
vt 0.172461 0.464258
vt 0.825971 0.496989
vt 0.826237 0.506181
vt 0.835221 0.506181
vt 0.835487 0.496989
vt 0.163109 0.462041
vt 0.163477 0.471025
vt 0.172461 0.471025
vt 0.172829 0.462041
vt 0.825606 0.497198
vt 0.826237 0.506181
vt 0.835221 0.506181
vt 0.835852 0.497197
vn 0.0000 -1.0000 -0.0000
vn -1.0000 0.0000 0.0000
vn 0.0000 0.0000 1.0000
vn 0.0000 1.0000 0.0000
vn 1.0000 0.0000 0.0000
vn 0.7071 0.0000 -0.7071
vn -0.7071 0.0000 0.7071
vn 0.7071 0.0000 0.7071
vn -0.7071 0.0000 -0.7071
vn 0.0000 0.0000 -1.0000
vn 0.5588 0.3100 -0.7692
vn 0.0000 0.3100 0.9507
vn -0.5588 0.3100 -0.7692
vn 0.9042 0.3100 0.2938
vn -0.9042 0.3100 0.2938
vn -0.9029 0.3142 0.2934
vn -0.9033 0.3131 0.2935
vn -0.9034 0.3126 0.2935
vn 0.9029 0.3142 0.2934
vn 0.9033 0.3131 0.2935
vn 0.9034 0.3126 0.2935
vn -0.5580 0.3142 -0.7680
vn -0.5582 0.3131 -0.7684
vn -0.5583 0.3126 -0.7685
vn 0.0000 0.3142 0.9493
vn 0.0000 0.3131 0.9497
vn 0.0000 0.3126 0.9499
vn 0.5580 0.3142 -0.7680
vn 0.5582 0.3131 -0.7684
vn 0.5583 0.3126 -0.7685
usemtl Material
s off
f 11/1/1 12/2/1 3/3/1 4/4/1 7/5/1 8/6/1 15/7/1 16/8/1
f 16/9/2 13/10/2 10/11/2 11/12/2
f 8/13/3 5/14/3 14/15/3 15/16/3
f 1/17/4 2/18/4 9/19/4 10/20/4 13/21/4 14/22/4 5/23/4 6/24/4
f 4/25/5 1/26/5 6/27/5 7/28/5
f 1/29/6 4/30/6 3/31/6 2/32/6
f 15/33/7 14/34/7 13/35/7 16/36/7
f 5/37/8 8/38/8 7/39/8 6/40/8
f 9/41/9 12/42/9 11/43/9 10/44/9
f 12/45/10 9/46/10 2/47/10 3/48/10
f 31/49/11 22/50/11 26/51/11 30/52/11
f 39/53/12 25/54/12 24/55/12 38/56/12
f 43/57/13 23/58/13 22/59/13 31/60/13
f 30/61/14 26/62/14 25/63/14 39/64/14
f 38/65/15 24/66/15 23/67/15 43/68/15
f 23/69/4 24/66/4 25/70/4 26/71/4 22/59/4
f 19/72/16 35/73/16 46/74/16 18/75/16
f 35/76/17 36/77/17 45/78/17 46/79/17
f 36/80/18 37/81/18 44/82/18 45/83/18
f 37/84/18 38/85/18 43/86/18 44/87/18
f 21/88/19 27/89/19 42/90/19 20/91/19
f 27/92/20 28/93/20 41/94/20 42/95/20
f 28/96/21 29/97/21 40/98/21 41/99/21
f 29/100/21 30/101/21 39/102/21 40/103/21
f 18/104/22 46/105/22 34/106/22 17/107/22
f 46/108/23 45/109/23 33/110/23 34/111/23
f 45/112/24 44/113/24 32/114/24 33/115/24
f 44/116/24 43/117/24 31/118/24 32/119/24
f 20/120/25 42/121/25 35/122/25 19/123/25
f 42/124/26 41/125/26 36/126/26 35/127/26
f 41/128/27 40/129/27 37/130/27 36/131/27
f 40/132/27 39/133/27 38/134/27 37/135/27
f 17/136/28 34/137/28 27/138/28 21/139/28
f 34/140/29 33/141/29 28/142/29 27/143/29
f 33/144/30 32/145/30 29/146/30 28/147/30
f 32/148/30 31/149/30 30/150/30 29/151/30
